<mxfile host="app.diagrams.net" modified="2024-03-23T07:06:01.477Z" agent="Mozilla/5.0 (Windows NT 10.0; Win64; x64) AppleWebKit/537.36 (KHTML, like Gecko) Chrome/120.0.0.0 YaBrowser/24.1.0.0 Safari/537.36" etag="QYWr7c28m713lJ_MTZtJ" version="24.0.8" type="google">
  <diagram name="Page-1" id="13e1069c-82ec-6db2-03f1-153e76fe0fe0">
    <mxGraphModel grid="1" page="1" gridSize="10" guides="1" tooltips="1" connect="1" arrows="1" fold="1" pageScale="1" pageWidth="1100" pageHeight="850" background="none" math="0" shadow="0">
      <root>
        <mxCell id="0" />
        <mxCell id="1" parent="0" />
        <mxCell id="7baba1c4bc27f4b0-2" value=":GUI" style="shape=umlLifeline;perimeter=lifelinePerimeter;whiteSpace=wrap;html=1;container=1;collapsible=0;recursiveResize=0;outlineConnect=0;rounded=1;shadow=0;comic=0;labelBackgroundColor=none;strokeWidth=1;fontFamily=Verdana;fontSize=12;align=center;" vertex="1" parent="1">
          <mxGeometry x="240" y="80" width="100" height="1770" as="geometry" />
        </mxCell>
        <mxCell id="wwS38SLD4BhZDNM-s97V-25" value="" style="html=1;points=[];perimeter=orthogonalPerimeter;" vertex="1" parent="7baba1c4bc27f4b0-2">
          <mxGeometry x="45" y="60" width="10" height="1530" as="geometry" />
        </mxCell>
        <mxCell id="7baba1c4bc27f4b0-4" value=":API-Gateway" style="shape=umlLifeline;perimeter=lifelinePerimeter;whiteSpace=wrap;html=1;container=1;collapsible=0;recursiveResize=0;outlineConnect=0;rounded=1;shadow=0;comic=0;labelBackgroundColor=none;strokeWidth=1;fontFamily=Verdana;fontSize=12;align=center;" vertex="1" parent="1">
          <mxGeometry x="381" y="80" width="100" height="1760" as="geometry" />
        </mxCell>
        <mxCell id="WZIY-89Z3sl6ZoVQuBjr-1" value="" style="html=1;points=[[0,0,0,0,5],[0,1,0,0,-5],[1,0,0,0,5],[1,1,0,0,-5]];perimeter=orthogonalPerimeter;outlineConnect=0;targetShapes=umlLifeline;portConstraint=eastwest;newEdgeStyle={&quot;curved&quot;:0,&quot;rounded&quot;:0};" vertex="1" parent="7baba1c4bc27f4b0-4">
          <mxGeometry x="45" y="871" width="10" height="130" as="geometry" />
        </mxCell>
        <mxCell id="6TLv_LDRQM8zPzN4MqLn-1" value="" style="html=1;points=[[0,0,0,0,5],[0,1,0,0,-5],[1,0,0,0,5],[1,1,0,0,-5]];perimeter=orthogonalPerimeter;outlineConnect=0;targetShapes=umlLifeline;portConstraint=eastwest;newEdgeStyle={&quot;curved&quot;:0,&quot;rounded&quot;:0};" vertex="1" parent="7baba1c4bc27f4b0-4">
          <mxGeometry x="45" y="158" width="10" height="122" as="geometry" />
        </mxCell>
        <mxCell id="6TLv_LDRQM8zPzN4MqLn-4" value="" style="html=1;points=[[0,0,0,0,5],[0,1,0,0,-5],[1,0,0,0,5],[1,1,0,0,-5]];perimeter=orthogonalPerimeter;outlineConnect=0;targetShapes=umlLifeline;portConstraint=eastwest;newEdgeStyle={&quot;curved&quot;:0,&quot;rounded&quot;:0};" vertex="1" parent="7baba1c4bc27f4b0-4">
          <mxGeometry x="50" y="198" width="10" height="40" as="geometry" />
        </mxCell>
        <mxCell id="6TLv_LDRQM8zPzN4MqLn-5" value="Валидировать&lt;br&gt;данные запроса" style="html=1;align=left;spacingLeft=2;endArrow=block;rounded=0;edgeStyle=orthogonalEdgeStyle;curved=0;rounded=0;" edge="1" parent="7baba1c4bc27f4b0-4" target="6TLv_LDRQM8zPzN4MqLn-4">
          <mxGeometry relative="1" as="geometry">
            <mxPoint x="55" y="178" as="sourcePoint" />
            <Array as="points">
              <mxPoint x="85" y="208" />
            </Array>
          </mxGeometry>
        </mxCell>
        <mxCell id="6TLv_LDRQM8zPzN4MqLn-30" value="" style="html=1;points=[[0,0,0,0,5],[0,1,0,0,-5],[1,0,0,0,5],[1,1,0,0,-5]];perimeter=orthogonalPerimeter;outlineConnect=0;targetShapes=umlLifeline;portConstraint=eastwest;newEdgeStyle={&quot;curved&quot;:0,&quot;rounded&quot;:0};" vertex="1" parent="7baba1c4bc27f4b0-4">
          <mxGeometry x="50" y="910" width="10" height="40" as="geometry" />
        </mxCell>
        <mxCell id="6TLv_LDRQM8zPzN4MqLn-31" value="Валидировать&lt;br&gt;данные запроса" style="html=1;align=left;spacingLeft=2;endArrow=block;rounded=0;edgeStyle=orthogonalEdgeStyle;curved=0;rounded=0;" edge="1" parent="7baba1c4bc27f4b0-4" target="6TLv_LDRQM8zPzN4MqLn-30">
          <mxGeometry relative="1" as="geometry">
            <mxPoint x="55" y="890" as="sourcePoint" />
            <Array as="points">
              <mxPoint x="85" y="920" />
            </Array>
          </mxGeometry>
        </mxCell>
        <mxCell id="7baba1c4bc27f4b0-6" value=":DB change password manager" style="shape=umlLifeline;perimeter=lifelinePerimeter;whiteSpace=wrap;html=1;container=1;collapsible=0;recursiveResize=0;outlineConnect=0;rounded=1;shadow=0;comic=0;labelBackgroundColor=none;strokeWidth=1;fontFamily=Verdana;fontSize=12;align=center;" vertex="1" parent="1">
          <mxGeometry x="680" y="80" width="100" height="1760" as="geometry" />
        </mxCell>
        <mxCell id="wwS38SLD4BhZDNM-s97V-44" value="" style="html=1;points=[];perimeter=orthogonalPerimeter;" vertex="1" parent="7baba1c4bc27f4b0-6">
          <mxGeometry x="45" y="1141" width="10" height="80" as="geometry" />
        </mxCell>
        <mxCell id="wwS38SLD4BhZDNM-s97V-54" value="" style="html=1;points=[];perimeter=orthogonalPerimeter;" vertex="1" parent="7baba1c4bc27f4b0-6">
          <mxGeometry x="45" y="1350" width="10" height="80" as="geometry" />
        </mxCell>
        <mxCell id="6TLv_LDRQM8zPzN4MqLn-14" value="" style="html=1;points=[[0,0,0,0,5],[0,1,0,0,-5],[1,0,0,0,5],[1,1,0,0,-5]];perimeter=orthogonalPerimeter;outlineConnect=0;targetShapes=umlLifeline;portConstraint=eastwest;newEdgeStyle={&quot;curved&quot;:0,&quot;rounded&quot;:0};" vertex="1" parent="7baba1c4bc27f4b0-6">
          <mxGeometry x="45" y="364" width="10" height="106" as="geometry" />
        </mxCell>
        <mxCell id="7baba1c4bc27f4b0-7" value=":СУБД" style="shape=umlLifeline;perimeter=lifelinePerimeter;whiteSpace=wrap;html=1;container=1;collapsible=0;recursiveResize=0;outlineConnect=0;rounded=1;shadow=0;comic=0;labelBackgroundColor=none;strokeWidth=1;fontFamily=Verdana;fontSize=12;align=center;" vertex="1" parent="1">
          <mxGeometry x="820" y="80" width="100" height="1760" as="geometry" />
        </mxCell>
        <mxCell id="wwS38SLD4BhZDNM-s97V-50" value="" style="html=1;points=[];perimeter=orthogonalPerimeter;" vertex="1" parent="7baba1c4bc27f4b0-7">
          <mxGeometry x="45" y="1156" width="10" height="50" as="geometry" />
        </mxCell>
        <mxCell id="wwS38SLD4BhZDNM-s97V-57" value="" style="html=1;points=[];perimeter=orthogonalPerimeter;" vertex="1" parent="7baba1c4bc27f4b0-7">
          <mxGeometry x="45" y="1360" width="10" height="60" as="geometry" />
        </mxCell>
        <mxCell id="6TLv_LDRQM8zPzN4MqLn-17" value="" style="html=1;points=[[0,0,0,0,5],[0,1,0,0,-5],[1,0,0,0,5],[1,1,0,0,-5]];perimeter=orthogonalPerimeter;outlineConnect=0;targetShapes=umlLifeline;portConstraint=eastwest;newEdgeStyle={&quot;curved&quot;:0,&quot;rounded&quot;:0};" vertex="1" parent="7baba1c4bc27f4b0-7">
          <mxGeometry x="45" y="377" width="10" height="80" as="geometry" />
        </mxCell>
        <mxCell id="7baba1c4bc27f4b0-11" value="Переход по ссылке&amp;nbsp;&lt;div&gt;смены пароля&lt;/div&gt;" style="html=1;verticalAlign=bottom;endArrow=block;labelBackgroundColor=none;fontFamily=Verdana;fontSize=12;edgeStyle=elbowEdgeStyle;elbow=vertical;entryX=-0.374;entryY=0.025;entryDx=0;entryDy=0;entryPerimeter=0;" edge="1" parent="1">
          <mxGeometry relative="1" as="geometry">
            <mxPoint x="155" y="190" as="sourcePoint" />
            <mxPoint x="281.25999999999976" y="190.5" as="targetPoint" />
          </mxGeometry>
        </mxCell>
        <mxCell id="wwS38SLD4BhZDNM-s97V-5" value="" style="shape=umlLifeline;participant=umlActor;perimeter=lifelinePerimeter;whiteSpace=wrap;html=1;container=1;collapsible=0;recursiveResize=0;verticalAlign=top;spacingTop=36;outlineConnect=0;" vertex="1" parent="1">
          <mxGeometry x="140" y="80" width="20" height="1760" as="geometry" />
        </mxCell>
        <mxCell id="wwS38SLD4BhZDNM-s97V-6" value="" style="html=1;points=[];perimeter=orthogonalPerimeter;" vertex="1" parent="wwS38SLD4BhZDNM-s97V-5">
          <mxGeometry x="5" y="60" width="10" height="1530" as="geometry" />
        </mxCell>
        <mxCell id="wwS38SLD4BhZDNM-s97V-38" value="HTTP запрос API&lt;div&gt;&quot;Сменить пароль &lt;br&gt;пользователя&quot;&lt;/div&gt;" style="html=1;verticalAlign=bottom;endArrow=block;entryX=0;entryY=0;rounded=0;entryDx=0;entryDy=5;entryPerimeter=0;" edge="1" parent="1" target="WZIY-89Z3sl6ZoVQuBjr-1">
          <mxGeometry relative="1" as="geometry">
            <mxPoint x="295" y="956" as="sourcePoint" />
          </mxGeometry>
        </mxCell>
        <mxCell id="wwS38SLD4BhZDNM-s97V-39" value="Результат запроса" style="html=1;verticalAlign=bottom;endArrow=open;dashed=1;endSize=8;exitX=-0.18;exitY=0.989;rounded=0;exitDx=0;exitDy=0;exitPerimeter=0;" edge="1" parent="1" source="wwS38SLD4BhZDNM-s97V-37" target="wwS38SLD4BhZDNM-s97V-25">
          <mxGeometry relative="1" as="geometry">
            <mxPoint x="295" y="1753.9999999999973" as="targetPoint" />
          </mxGeometry>
        </mxCell>
        <mxCell id="wwS38SLD4BhZDNM-s97V-45" value="Поиск пользователя по&amp;nbsp;&lt;div&gt;токену восстановления&lt;/div&gt;" style="html=1;verticalAlign=bottom;endArrow=block;entryX=0;entryY=0;rounded=0;" edge="1" parent="1" source="wwS38SLD4BhZDNM-s97V-37" target="wwS38SLD4BhZDNM-s97V-44">
          <mxGeometry relative="1" as="geometry">
            <mxPoint x="795" y="1431" as="sourcePoint" />
          </mxGeometry>
        </mxCell>
        <mxCell id="wwS38SLD4BhZDNM-s97V-46" value="Результат поиска" style="html=1;verticalAlign=bottom;endArrow=open;dashed=1;endSize=8;exitX=0;exitY=0.95;rounded=0;" edge="1" parent="1" source="wwS38SLD4BhZDNM-s97V-44" target="wwS38SLD4BhZDNM-s97V-37">
          <mxGeometry relative="1" as="geometry">
            <mxPoint x="795" y="1507" as="targetPoint" />
          </mxGeometry>
        </mxCell>
        <mxCell id="wwS38SLD4BhZDNM-s97V-51" value="Запрос к БД" style="html=1;verticalAlign=bottom;endArrow=block;entryX=0;entryY=0;rounded=0;" edge="1" parent="1" source="wwS38SLD4BhZDNM-s97V-44" target="wwS38SLD4BhZDNM-s97V-50">
          <mxGeometry relative="1" as="geometry">
            <mxPoint x="814" y="1431" as="sourcePoint" />
          </mxGeometry>
        </mxCell>
        <mxCell id="wwS38SLD4BhZDNM-s97V-52" value="Результат запроса" style="html=1;verticalAlign=bottom;endArrow=open;dashed=1;endSize=8;exitX=0;exitY=0.95;rounded=0;" edge="1" parent="1" source="wwS38SLD4BhZDNM-s97V-50" target="wwS38SLD4BhZDNM-s97V-44">
          <mxGeometry relative="1" as="geometry">
            <mxPoint x="814" y="1507" as="targetPoint" />
          </mxGeometry>
        </mxCell>
        <mxCell id="wwS38SLD4BhZDNM-s97V-55" value="&lt;div&gt;Записать хеш пароля и&lt;/div&gt;удалить токен&lt;div&gt;восстановления&lt;/div&gt;" style="html=1;verticalAlign=bottom;endArrow=block;entryX=0;entryY=0;rounded=0;" edge="1" parent="1" source="wwS38SLD4BhZDNM-s97V-37" target="wwS38SLD4BhZDNM-s97V-54">
          <mxGeometry x="-0.0007" relative="1" as="geometry">
            <mxPoint x="795" y="1621" as="sourcePoint" />
            <mxPoint as="offset" />
          </mxGeometry>
        </mxCell>
        <mxCell id="wwS38SLD4BhZDNM-s97V-56" value="Результат" style="html=1;verticalAlign=bottom;endArrow=open;dashed=1;endSize=8;exitX=0;exitY=0.95;rounded=0;" edge="1" parent="1" source="wwS38SLD4BhZDNM-s97V-54" target="wwS38SLD4BhZDNM-s97V-37">
          <mxGeometry relative="1" as="geometry">
            <mxPoint x="795" y="1697" as="targetPoint" />
          </mxGeometry>
        </mxCell>
        <mxCell id="wwS38SLD4BhZDNM-s97V-58" value="Запрос к БД" style="html=1;verticalAlign=bottom;endArrow=block;entryX=0;entryY=0;rounded=0;" edge="1" parent="1" source="wwS38SLD4BhZDNM-s97V-54" target="wwS38SLD4BhZDNM-s97V-57">
          <mxGeometry relative="1" as="geometry">
            <mxPoint x="814" y="1621" as="sourcePoint" />
          </mxGeometry>
        </mxCell>
        <mxCell id="wwS38SLD4BhZDNM-s97V-59" value="Результат запроса" style="html=1;verticalAlign=bottom;endArrow=open;dashed=1;endSize=8;exitX=0;exitY=0.95;rounded=0;" edge="1" parent="1" source="wwS38SLD4BhZDNM-s97V-57" target="wwS38SLD4BhZDNM-s97V-54">
          <mxGeometry relative="1" as="geometry">
            <mxPoint x="814" y="1697" as="targetPoint" />
          </mxGeometry>
        </mxCell>
        <mxCell id="wwS38SLD4BhZDNM-s97V-69" value="Отобразить форму&amp;nbsp;&lt;br&gt;&quot;Стартовая страница&quot;" style="html=1;verticalAlign=bottom;endArrow=open;dashed=1;endSize=8;rounded=0;exitX=-0.2;exitY=0.854;exitDx=0;exitDy=0;exitPerimeter=0;" edge="1" parent="1">
          <mxGeometry relative="1" as="geometry">
            <mxPoint x="283.00000000000045" y="1540" as="sourcePoint" />
            <mxPoint x="155" y="1540" as="targetPoint" />
          </mxGeometry>
        </mxCell>
        <mxCell id="g-z1oCNefS3xPDmUXuDe-1" value=":Change-password-Handler" style="shape=umlLifeline;perimeter=lifelinePerimeter;whiteSpace=wrap;html=1;container=1;collapsible=0;recursiveResize=0;outlineConnect=0;rounded=1;shadow=0;comic=0;labelBackgroundColor=none;strokeWidth=1;fontFamily=Verdana;fontSize=12;align=center;" vertex="1" parent="1">
          <mxGeometry x="521" y="80" width="100" height="1760" as="geometry" />
        </mxCell>
        <mxCell id="wwS38SLD4BhZDNM-s97V-37" value="" style="html=1;points=[];perimeter=orthogonalPerimeter;" vertex="1" parent="g-z1oCNefS3xPDmUXuDe-1">
          <mxGeometry x="45" y="971" width="10" height="479" as="geometry" />
        </mxCell>
        <mxCell id="WZIY-89Z3sl6ZoVQuBjr-6" value="" style="html=1;points=[[0,0,0,0,5],[0,1,0,0,-5],[1,0,0,0,5],[1,1,0,0,-5]];perimeter=orthogonalPerimeter;outlineConnect=0;targetShapes=umlLifeline;portConstraint=eastwest;newEdgeStyle={&quot;curved&quot;:0,&quot;rounded&quot;:0};" vertex="1" parent="g-z1oCNefS3xPDmUXuDe-1">
          <mxGeometry x="50" y="1261" width="10" height="40" as="geometry" />
        </mxCell>
        <mxCell id="WZIY-89Z3sl6ZoVQuBjr-7" value="Посчитать хеш&amp;nbsp;&lt;div&gt;нового пароля&lt;/div&gt;" style="html=1;align=left;spacingLeft=2;endArrow=block;rounded=0;edgeStyle=orthogonalEdgeStyle;curved=0;rounded=0;" edge="1" parent="g-z1oCNefS3xPDmUXuDe-1" target="WZIY-89Z3sl6ZoVQuBjr-6">
          <mxGeometry relative="1" as="geometry">
            <mxPoint x="55" y="1241" as="sourcePoint" />
            <Array as="points">
              <mxPoint x="85" y="1271" />
            </Array>
          </mxGeometry>
        </mxCell>
        <mxCell id="WZIY-89Z3sl6ZoVQuBjr-8" value="" style="html=1;points=[[0,0,0,0,5],[0,1,0,0,-5],[1,0,0,0,5],[1,1,0,0,-5]];perimeter=orthogonalPerimeter;outlineConnect=0;targetShapes=umlLifeline;portConstraint=eastwest;newEdgeStyle={&quot;curved&quot;:0,&quot;rounded&quot;:0};" vertex="1" parent="g-z1oCNefS3xPDmUXuDe-1">
          <mxGeometry x="50" y="1031" width="10" height="40" as="geometry" />
        </mxCell>
        <mxCell id="WZIY-89Z3sl6ZoVQuBjr-9" value="Валидировать&lt;br style=&quot;border-color: var(--border-color);&quot;&gt;формат поля токена&amp;nbsp;&lt;div&gt;восстановления и&amp;nbsp;&lt;/div&gt;&lt;div&gt;поля пароля&lt;/div&gt;" style="html=1;align=left;spacingLeft=2;endArrow=block;rounded=0;edgeStyle=orthogonalEdgeStyle;curved=0;rounded=0;" edge="1" parent="g-z1oCNefS3xPDmUXuDe-1" target="WZIY-89Z3sl6ZoVQuBjr-8">
          <mxGeometry x="0.0118" relative="1" as="geometry">
            <mxPoint x="55" y="1011" as="sourcePoint" />
            <Array as="points">
              <mxPoint x="85" y="1041" />
            </Array>
            <mxPoint as="offset" />
          </mxGeometry>
        </mxCell>
        <mxCell id="6TLv_LDRQM8zPzN4MqLn-9" value="" style="html=1;points=[[0,0,0,0,5],[0,1,0,0,-5],[1,0,0,0,5],[1,1,0,0,-5]];perimeter=orthogonalPerimeter;outlineConnect=0;targetShapes=umlLifeline;portConstraint=eastwest;newEdgeStyle={&quot;curved&quot;:0,&quot;rounded&quot;:0};" vertex="1" parent="g-z1oCNefS3xPDmUXuDe-1">
          <mxGeometry x="45" y="265" width="10" height="235" as="geometry" />
        </mxCell>
        <mxCell id="6TLv_LDRQM8zPzN4MqLn-12" value="" style="html=1;points=[[0,0,0,0,5],[0,1,0,0,-5],[1,0,0,0,5],[1,1,0,0,-5]];perimeter=orthogonalPerimeter;outlineConnect=0;targetShapes=umlLifeline;portConstraint=eastwest;newEdgeStyle={&quot;curved&quot;:0,&quot;rounded&quot;:0};" vertex="1" parent="g-z1oCNefS3xPDmUXuDe-1">
          <mxGeometry x="50" y="296" width="10" height="40" as="geometry" />
        </mxCell>
        <mxCell id="6TLv_LDRQM8zPzN4MqLn-13" value="Валидировать&lt;br style=&quot;border-color: var(--border-color);&quot;&gt;формат поля токена&amp;nbsp;&lt;div&gt;восстановления&lt;/div&gt;" style="html=1;align=left;spacingLeft=2;endArrow=block;rounded=0;edgeStyle=orthogonalEdgeStyle;curved=0;rounded=0;" edge="1" parent="g-z1oCNefS3xPDmUXuDe-1" target="6TLv_LDRQM8zPzN4MqLn-12">
          <mxGeometry relative="1" as="geometry">
            <mxPoint x="55" y="276" as="sourcePoint" />
            <Array as="points">
              <mxPoint x="85" y="306" />
            </Array>
          </mxGeometry>
        </mxCell>
        <mxCell id="g-z1oCNefS3xPDmUXuDe-6" value="Запрос API" style="html=1;verticalAlign=bottom;endArrow=block;entryX=-0.12;entryY=0.026;rounded=0;entryDx=0;entryDy=0;entryPerimeter=0;" edge="1" parent="1" source="WZIY-89Z3sl6ZoVQuBjr-1" target="wwS38SLD4BhZDNM-s97V-37">
          <mxGeometry relative="1" as="geometry">
            <mxPoint x="460" y="1071" as="sourcePoint" />
            <mxPoint x="591" y="1071" as="targetPoint" />
          </mxGeometry>
        </mxCell>
        <mxCell id="g-z1oCNefS3xPDmUXuDe-7" value="" style="group" vertex="1" connectable="0" parent="1">
          <mxGeometry x="318" y="1542" width="242" height="170" as="geometry" />
        </mxCell>
        <mxCell id="g-z1oCNefS3xPDmUXuDe-8" value="" style="rounded=0;whiteSpace=wrap;html=1;" vertex="1" parent="g-z1oCNefS3xPDmUXuDe-7">
          <mxGeometry width="232.70157676348552" height="138.125" as="geometry" />
        </mxCell>
        <mxCell id="g-z1oCNefS3xPDmUXuDe-9" value="Стартотвая страница" style="text;html=1;strokeColor=none;fillColor=none;align=center;verticalAlign=middle;whiteSpace=wrap;rounded=0;" vertex="1" parent="g-z1oCNefS3xPDmUXuDe-7">
          <mxGeometry x="136.00406639004137" y="145.828125" width="90.37344398340251" height="15.9375" as="geometry" />
        </mxCell>
        <mxCell id="g-z1oCNefS3xPDmUXuDe-10" value="Вход в систему" style="rounded=1;whiteSpace=wrap;html=1;perimeterSpacing=0;" vertex="1" parent="g-z1oCNefS3xPDmUXuDe-7">
          <mxGeometry x="125.51867219917014" y="85" width="75.81327800829878" height="26.5625" as="geometry" />
        </mxCell>
        <mxCell id="g-z1oCNefS3xPDmUXuDe-11" value="Регистрация" style="rounded=1;whiteSpace=wrap;html=1;perimeterSpacing=0;" vertex="1" parent="g-z1oCNefS3xPDmUXuDe-7">
          <mxGeometry x="20.082987551867227" y="85" width="75.81327800829878" height="26.5625" as="geometry" />
        </mxCell>
        <mxCell id="g-z1oCNefS3xPDmUXuDe-30" value="" style="group" connectable="0" vertex="1" parent="1">
          <mxGeometry x="330" y="680" width="320" height="216" as="geometry" />
        </mxCell>
        <mxCell id="g-z1oCNefS3xPDmUXuDe-25" value="v" style="rounded=0;whiteSpace=wrap;html=1;" vertex="1" parent="g-z1oCNefS3xPDmUXuDe-30">
          <mxGeometry width="320" height="189.7297297297297" as="geometry" />
        </mxCell>
        <mxCell id="g-z1oCNefS3xPDmUXuDe-26" value="Восстановление пароля" style="text;html=1;strokeColor=none;fillColor=none;align=center;verticalAlign=middle;whiteSpace=wrap;rounded=0;" vertex="1" parent="g-z1oCNefS3xPDmUXuDe-30">
          <mxGeometry x="89.46236559139784" y="194.1081081081081" width="123.87096774193547" height="21.89189189189189" as="geometry" />
        </mxCell>
        <mxCell id="g-z1oCNefS3xPDmUXuDe-27" value="" style="rounded=0;whiteSpace=wrap;html=1;" vertex="1" parent="g-z1oCNefS3xPDmUXuDe-30">
          <mxGeometry x="80.86021505376344" y="51.08108108108108" width="151.39784946236557" height="94.86486486486486" as="geometry" />
        </mxCell>
        <mxCell id="g-z1oCNefS3xPDmUXuDe-29" value="&lt;font style=&quot;font-size: 10px;&quot;&gt;Сменить пароль&lt;/font&gt;" style="rounded=1;whiteSpace=wrap;html=1;" vertex="1" parent="g-z1oCNefS3xPDmUXuDe-30">
          <mxGeometry x="129.03225806451613" y="116.75675675675676" width="55.053763440860216" height="21.89189189189189" as="geometry" />
        </mxCell>
        <mxCell id="6TLv_LDRQM8zPzN4MqLn-36" value="Поле для ввода&lt;div&gt;нового пароля&lt;/div&gt;" style="rounded=0;whiteSpace=wrap;html=1;" vertex="1" parent="g-z1oCNefS3xPDmUXuDe-30">
          <mxGeometry x="88.19731182795702" y="60.00333333333337" width="136.73118279569889" height="46" as="geometry" />
        </mxCell>
        <mxCell id="g-z1oCNefS3xPDmUXuDe-31" value="" style="endArrow=block;dashed=1;endFill=0;endSize=12;html=1;rounded=0;exitX=0;exitY=0.25;exitDx=0;exitDy=0;" edge="1" parent="1" source="g-z1oCNefS3xPDmUXuDe-8" target="wwS38SLD4BhZDNM-s97V-25">
          <mxGeometry width="160" relative="1" as="geometry">
            <mxPoint x="244" y="1596" as="sourcePoint" />
            <mxPoint x="174" y="1596" as="targetPoint" />
          </mxGeometry>
        </mxCell>
        <mxCell id="6TLv_LDRQM8zPzN4MqLn-2" value="HTTP запрос API&lt;div&gt;&quot;Проверить токен &lt;br&gt;восстановления&quot;&lt;/div&gt;" style="html=1;verticalAlign=bottom;endArrow=block;curved=0;rounded=0;entryX=0;entryY=0;entryDx=0;entryDy=5;" edge="1" parent="1" source="wwS38SLD4BhZDNM-s97V-25" target="6TLv_LDRQM8zPzN4MqLn-1">
          <mxGeometry relative="1" as="geometry">
            <mxPoint x="356" y="243" as="sourcePoint" />
          </mxGeometry>
        </mxCell>
        <mxCell id="6TLv_LDRQM8zPzN4MqLn-10" value="Передача запроса&lt;div&gt;Валидация токена&amp;nbsp;&lt;/div&gt;&lt;div&gt;восстановления&lt;/div&gt;" style="html=1;verticalAlign=bottom;endArrow=block;curved=0;rounded=0;entryX=0;entryY=0;entryDx=0;entryDy=5;" edge="1" parent="1" source="6TLv_LDRQM8zPzN4MqLn-1" target="6TLv_LDRQM8zPzN4MqLn-9">
          <mxGeometry relative="1" as="geometry">
            <mxPoint x="496" y="350" as="sourcePoint" />
          </mxGeometry>
        </mxCell>
        <mxCell id="6TLv_LDRQM8zPzN4MqLn-11" value="Результат запроса" style="html=1;verticalAlign=bottom;endArrow=open;dashed=1;endSize=8;curved=0;rounded=0;exitX=0;exitY=1;exitDx=0;exitDy=-5;" edge="1" parent="1" source="6TLv_LDRQM8zPzN4MqLn-9" target="wwS38SLD4BhZDNM-s97V-25">
          <mxGeometry relative="1" as="geometry">
            <mxPoint x="320" y="575" as="targetPoint" />
          </mxGeometry>
        </mxCell>
        <mxCell id="6TLv_LDRQM8zPzN4MqLn-16" value="Результат поиска" style="html=1;verticalAlign=bottom;endArrow=open;dashed=1;endSize=8;curved=0;rounded=0;exitX=0;exitY=1;exitDx=0;exitDy=-5;" edge="1" parent="1" source="6TLv_LDRQM8zPzN4MqLn-14" target="6TLv_LDRQM8zPzN4MqLn-9">
          <mxGeometry relative="1" as="geometry">
            <mxPoint x="655" y="519" as="targetPoint" />
          </mxGeometry>
        </mxCell>
        <mxCell id="6TLv_LDRQM8zPzN4MqLn-15" value="Поиск пользователя по&amp;nbsp;&lt;div&gt;токену восстановления&lt;/div&gt;" style="html=1;verticalAlign=bottom;endArrow=block;curved=0;rounded=0;entryX=0;entryY=0;entryDx=0;entryDy=5;" edge="1" parent="1" source="6TLv_LDRQM8zPzN4MqLn-9" target="6TLv_LDRQM8zPzN4MqLn-14">
          <mxGeometry relative="1" as="geometry">
            <mxPoint x="655" y="449" as="sourcePoint" />
          </mxGeometry>
        </mxCell>
        <mxCell id="6TLv_LDRQM8zPzN4MqLn-18" value="Запрос к БД" style="html=1;verticalAlign=bottom;endArrow=block;curved=0;rounded=0;entryX=0;entryY=0;entryDx=0;entryDy=5;" edge="1" parent="1" source="6TLv_LDRQM8zPzN4MqLn-14" target="6TLv_LDRQM8zPzN4MqLn-17">
          <mxGeometry relative="1" as="geometry">
            <mxPoint x="795" y="462" as="sourcePoint" />
          </mxGeometry>
        </mxCell>
        <mxCell id="6TLv_LDRQM8zPzN4MqLn-19" value="Результат запроса" style="html=1;verticalAlign=bottom;endArrow=open;dashed=1;endSize=8;curved=0;rounded=0;exitX=0;exitY=1;exitDx=0;exitDy=-5;" edge="1" parent="1" source="6TLv_LDRQM8zPzN4MqLn-17" target="6TLv_LDRQM8zPzN4MqLn-14">
          <mxGeometry relative="1" as="geometry">
            <mxPoint x="795" y="532" as="targetPoint" />
          </mxGeometry>
        </mxCell>
        <mxCell id="6TLv_LDRQM8zPzN4MqLn-20" value="Отобразить форму&amp;nbsp;&lt;br&gt;&quot;Восстановление пароля&quot;" style="html=1;verticalAlign=bottom;endArrow=open;dashed=1;endSize=8;curved=0;rounded=0;exitX=-0.1;exitY=0.325;exitDx=0;exitDy=0;exitPerimeter=0;" edge="1" parent="1">
          <mxGeometry relative="1" as="geometry">
            <mxPoint x="284" y="690" as="sourcePoint" />
            <mxPoint x="155" y="690" as="targetPoint" />
          </mxGeometry>
        </mxCell>
        <mxCell id="6TLv_LDRQM8zPzN4MqLn-26" value="Заполнить поле&amp;nbsp;&lt;div&gt;нового пароля&lt;/div&gt;" style="html=1;verticalAlign=bottom;endArrow=block;curved=0;rounded=0;entryX=-0.262;entryY=0.41;entryDx=0;entryDy=0;entryPerimeter=0;" edge="1" parent="1" source="wwS38SLD4BhZDNM-s97V-6" target="wwS38SLD4BhZDNM-s97V-25">
          <mxGeometry width="80" relative="1" as="geometry">
            <mxPoint x="190" y="810" as="sourcePoint" />
            <mxPoint x="270" y="810" as="targetPoint" />
          </mxGeometry>
        </mxCell>
        <mxCell id="6TLv_LDRQM8zPzN4MqLn-27" value="Нажать кнопку&amp;nbsp;&lt;div&gt;&quot;Сменить пароль&quot;&lt;/div&gt;" style="html=1;verticalAlign=bottom;endArrow=block;curved=0;rounded=0;entryX=-0.138;entryY=0.452;entryDx=0;entryDy=0;entryPerimeter=0;" edge="1" parent="1" source="wwS38SLD4BhZDNM-s97V-6" target="wwS38SLD4BhZDNM-s97V-25">
          <mxGeometry width="80" relative="1" as="geometry">
            <mxPoint x="190" y="840" as="sourcePoint" />
            <mxPoint x="270" y="840" as="targetPoint" />
          </mxGeometry>
        </mxCell>
        <mxCell id="6TLv_LDRQM8zPzN4MqLn-35" value="" style="endArrow=block;dashed=1;endFill=0;endSize=12;html=1;rounded=0;exitX=0;exitY=0.25;exitDx=0;exitDy=0;" edge="1" parent="1" source="g-z1oCNefS3xPDmUXuDe-25" target="wwS38SLD4BhZDNM-s97V-25">
          <mxGeometry width="160" relative="1" as="geometry">
            <mxPoint x="1470" y="1030" as="sourcePoint" />
            <mxPoint x="289" y="717" as="targetPoint" />
          </mxGeometry>
        </mxCell>
      </root>
    </mxGraphModel>
  </diagram>
</mxfile>
